# xmcd
#
# Track frame offsets:
#	150
#	19680
#	33951
#	49005
#	64341
#	81175
#	98470
#	114038
#	127839
#	145832
#	158274
#	173294
#	188661
#	202427
#	218736
#	234038
#	249659
#	265077
#	282014
#	301974
#	319666
#	333186
#
# Disc length: 4702 seconds
#
# Revision: 0
# Processed by: cddbd v1.5.2PL0 Copyright (c) Steve Scherf et al.
# Submitted via: EasyCDDAExtractor 10.0.4.1
#
DISCID=12125c16
DTITLE=Various Artist - Floorfillers III [CDThree)
DYEAR=2007
DGENRE=Pop
TTITLE0=The Bloodhound Gang - The Bad Touch
TTITLE1=Baha Men - Who Let The Dogs Out? (Barking Mad Mix)
TTITLE2=Steps - 5, 6, 7, 8
TTITLE3=S Club 7 - Bring It All Back
TTITLE4=DJ Jazzy Jeff and The Fresh Prince - Boom! Shake The Room
TTITLE5=Alcazar - Crying At The Discoteque
TTITLE6=Infernal - From Paris To Berlin
TTITLE7=Uniting Nations - You and Me
TTITLE8=DJ Sammy - Boys Of Summer
TTITLE9=Cabin Crew - Star 2 Fall
TTITLE10=Faith Evans - Mesmerized (Freemasons Radio Edit)
TTITLE11=Mylo Vs Miami Sound Machine - Doctor Pressure
TTITLE12=Groove Coverage - Poison
TTITLE13=Junior Jack - Stupidisco
TTITLE14=The Shapeshifters - Lola's Theme
TTITLE15=Tom Novy - Your Body
TTITLE16=StoneBridge Feat. Therese - Put 'Em High
TTITLE17=Tori Amos - Professional Widow (Remix)
TTITLE18=JX - There's Nothing I Won't Do
TTITLE19=Real McCoy - Another Night
TTITLE20=Crystal Waters - 100% Pure Love
TTITLE21=N-Trance - Set You Free
EXTD=
EXTT0=
EXTT1=
EXTT2=
EXTT3=
EXTT4=
EXTT5=
EXTT6=
EXTT7=
EXTT8=
EXTT9=
EXTT10=
EXTT11=
EXTT12=
EXTT13=
EXTT14=
EXTT15=
EXTT16=
EXTT17=
EXTT18=
EXTT19=
EXTT20=
EXTT21=
PLAYORDER=
